PathFileType	4	(X/Y/Z)	/Users/itak/Documents/Research/Walk-IL/dataset/trc/00044_00004.trc
DataRate	CameraRate	NumFrames	NumMarkers	Units	OrigDataRate	OrigDataStartFrame	OrigNumFrames
100.000000	100.000000	4	53	mm	100.000000	192	514
Frame#	Time	RPSI			LPSI			L3			STRN			T10			C7			CLAV			RBAK			LBAK			LSHO			LUPA			LAEL			LAOL			LWTS			LWPS			LFRA			LIFD			LHPS			LHTS			RSHO			RUPA			RAEL			RAOL			RWTS			RWPS			RFRA			RIFD			RHTS			RHPS			RBHD			LFHD			RFHD			LBHD			LHIP			RHIP			RASI			LASI			LKNE			LTHI			LANK			LTIP			LTOE			LMT1			LMT5			LHEE			RKNE			RTHI			RANK			RTIP			RTOE			RMT1			RMT5			RHEE			
		X1	Y1	Z1	X2	Y2	Z2	X3	Y3	Z3	X4	Y4	Z4	X5	Y5	Z5	X6	Y6	Z6	X7	Y7	Z7	X8	Y8	Z8	X9	Y9	Z9	X10	Y10	Z10	X11	Y11	Z11	X12	Y12	Z12	X13	Y13	Z13	X14	Y14	Z14	X15	Y15	Z15	X16	Y16	Z16	X17	Y17	Z17	X18	Y18	Z18	X19	Y19	Z19	X20	Y20	Z20	X21	Y21	Z21	X22	Y22	Z22	X23	Y23	Z23	X24	Y24	Z24	X25	Y25	Z25	X26	Y26	Z26	X27	Y27	Z27	X28	Y28	Z28	X29	Y29	Z29	X30	Y30	Z30	X31	Y31	Z31	X32	Y32	Z32	X33	Y33	Z33	X34	Y34	Z34	X35	Y35	Z35	X36	Y36	Z36	X37	Y37	Z37	X38	Y38	Z38	X39	Y39	Z39	X40	Y40	Z40	X41	Y41	Z41	X42	Y42	Z42	X43	Y43	Z43	X44	Y44	Z44	X45	Y45	Z45	X46	Y46	Z46	X47	Y47	Z47	X48	Y48	Z48	X49	Y49	Z49	X50	Y50	Z50	X51	Y51	Z51	X52	Y52	Z52	X53	Y53	Z53	

193	1.92	-1122.499755859375	1054.287353515625	124.0784530639648	-1133.360107421875	1045.568481445312	-38.09827423095703	-1132.145141601562	1111.616577148438	29.58267974853516	-901.4957885742188	1298.252197265625	29.32831001281738	-1150.824951171875	1255.8798828125	13.78059577941895	-1089.971801757812	1521.091186523438	-3.302578926086426	-939.1990966796875	1424.988525390625	18.75679588317871	-1155.109497070312	1388.633544921875	75.52522277832031	-1101.761474609375	1477.693725585938	-100.8020172119141	-993.8748168945312	1479.859375	-167.3656616210938	-1025.133666992188	1352.958129882812	-243.6259307861328	-1034.362548828125	1133.6015625	-263.7219848632812	-1096.110229492188	1126.7578125	-177.5863952636719	-960.2496337890625	880.079345703125	-194.5397491455078	-1034.8017578125	867.28271484375	-240.6228332519531	-1026.067993164062	1017.274169921875	-265.1102905273438	-942.979248046875	695.8401489257812	-167.3145904541016	-1004.692443847656	776.4274291992188	-235.0055541992188	-941.5550537109375	785.5914916992188	-203.0411834716797	-1032.218994140625	1506.921875	179.3742218017578	-1057.288330078125	1439.8935546875	249.4602966308594	-1117.349731445312	1177.584106445312	274.5359191894531	-1104.056030273438	1145.863403320312	180.2118072509766	-1011.657958984375	905.473388671875	273.5205688476562	-1086.904541015625	900.9542236328125	328.3917236328125	-1114.375732421875	1101.767700195312	294.4332275390625	-1017.63330078125	716.5621337890625	268.7201232910156	-993.4376831054688	794.4029541015625	296.9761657714844	-1056.395751953125	798.1753540039062	338.6185607910156	-1023.259216308594	1692.209228515625	-72.42957305908203	-901.5886840820312	1724.718627929688	105.901611328125	-867.4177856445312	1728.804565429688	13.50559616088867	-1066.4453125	1684.6630859375	65.58529663085938	-1049.444213867188	939.1240844726562	-149.1233825683594	-994.3206176757812	951.2826538085938	222.7908477783203	-906.5681762695312	983.6133422851562	135.4566192626953	-925.359375	986.057861328125	-98.70455169677734	-1052.174072265625	499.1425170898438	-83.82250213623047	-1055.790649414062	636.0030517578125	-122.4368209838867	-1232.110107421875	42.59253311157227	-60.68711090087891	-1172.86865234375	280.3239440917969	-91.07482147216797	-1021.828063964844	41.74269485473633	29.89867401123047	-1082.21923828125	52.66005325317383	36.92716217041016	-1106.515380859375	40.33003616333008	-67.36717224121094	-1307.687622070312	53.42768478393555	-16.59861373901367	-827.2349243164062	551.4949340820312	181.6428833007812	-923.4881591796875	800.979736328125	216.9946746826172	-835.0054321289062	52.24102020263672	138.6985778808594	-819.976318359375	420.8412780761719	177.760986328125	-605.0044555664062	82.82343292236328	122.9362106323242	-664.4219970703125	78.62375640869141	86.38234710693359	-692.29736328125	68.29813385009766	178.7086486816406	-884.3147583007812	47.93704986572266	85.84599304199219	
194	1.93	-1117.383056640625	1052.992797851562	124.9556655883789	-1128.523559570312	1044.524169921875	-37.15806579589844	-1127.172607421875	1110.641845703125	30.53916549682617	-896.0936279296875	1296.974975585938	30.24022674560547	-1145.6064453125	1254.932861328125	14.76560211181641	-1084.179077148438	1519.93603515625	-2.320804834365845	-933.6883544921875	1423.768188476562	19.73933792114258	-1149.621459960938	1387.667114257812	76.51176452636719	-1096.180541992188	1476.70263671875	-99.83962249755859	-988.2781982421875	1478.738159179688	-166.3787231445312	-1019.595703125	1351.890014648438	-242.7039489746094	-1028.726196289062	1132.516967773438	-262.8779907226562	-1090.585327148438	1125.621704101562	-176.8330230712891	-954.2924194335938	879.1458129882812	-193.56884765625	-1028.738403320312	866.203857421875	-239.7199096679688	-1020.289733886719	1016.196960449219	-264.2650146484375	-936.7647705078125	694.8781127929688	-166.44970703125	-998.4614868164062	775.401123046875	-234.0554809570312	-935.3517456054688	784.7169799804688	-202.0391998291016	-1026.582763671875	1505.720947265625	180.3661956787109	-1051.762451171875	1438.711059570312	250.422607421875	-1112.4326171875	1176.55029296875	275.3656616210938	-1099.128662109375	1144.836669921875	181.0490264892578	-1007.3837890625	904.2071533203125	274.2762756347656	-1082.674560546875	899.8359985351562	329.1084899902344	-1109.60595703125	1100.730834960938	295.2507629394531	-1013.78125	715.2449951171875	269.4188537597656	-989.4267578125	793.0563354492188	297.7060852050781	-1052.425048828125	796.9859619140625	339.3256530761719	-1016.908996582031	1691.002075195312	-71.57843017578125	-896.1836547851562	1723.385986328125	107.4295196533203	-861.5043334960938	1727.513305664062	15.2239933013916	-1060.904296875	1683.452758789062	66.21871948242188	-1044.8603515625	938.276123046875	-148.4210968017578	-988.90283203125	949.9308471679688	223.2727661132812	-901.3422241210938	982.408203125	135.7894897460938	-920.7108764648438	985.033203125	-98.31369018554688	-1048.81396484375	498.3812866210938	-83.68027496337891	-1051.9189453125	635.2797241210938	-121.8822555541992	-1232.079833984375	42.76213455200195	-60.49379730224609	-1171.126586914062	280.1696166992188	-90.76667022705078	-1021.728942871094	41.70801162719727	29.86235809326172	-1082.150146484375	52.71696090698242	36.96256637573242	-1106.50341796875	40.29220199584961	-67.40412902832031	-1307.596557617188	53.94751358032227	-16.47091293334961	-821.7054443359375	550.7783813476562	181.8893432617188	-918.2396240234375	799.702880859375	217.8741912841797	-818.9845581054688	51.88751220703125	138.4059295654297	-812.2244873046875	420.634521484375	177.7538909912109	-589.5523681640625	86.66021728515625	123.2861709594727	-648.729248046875	81.49604034423828	86.57936859130859	-676.6820678710938	70.47952270507812	178.7882995605469	-867.9576416015625	46.65200424194336	85.3460693359375	
195	1.94	-1112.148071289062	1051.649169921875	125.8693695068359	-1123.56982421875	1043.447265625	-36.17544937133789	-1122.099731445312	1109.634643554688	31.53640174865723	-890.5640258789062	1295.637084960938	31.20291328430176	-1140.276733398438	1253.951538085938	15.80082511901855	-1078.273071289062	1518.765991210938	-1.261849641799927	-928.041015625	1422.49267578125	20.78709030151367	-1144.018310546875	1386.657592773438	77.54763031005859	-1090.45263671875	1475.679809570312	-98.80916595458984	-982.5272216796875	1477.580810546875	-165.318115234375	-1013.911437988281	1350.790649414062	-241.7234039306641	-1022.947448730469	1131.397705078125	-261.9882507324219	-1084.903076171875	1124.452514648438	-176.0367584228516	-948.1946411132812	878.185302734375	-192.5263519287109	-1022.484741210938	865.0873413085938	-238.7553863525391	-1014.348449707031	1015.086059570312	-263.3641357421875	-930.3438110351562	693.9156494140625	-165.4502868652344	-992.0791625976562	774.3451538085938	-233.0508270263672	-928.9812622070312	783.82861328125	-200.9630126953125	-1020.803039550781	1504.459594726562	181.4316101074219	-1046.09423828125	1437.464965820312	251.4522857666016	-1107.385864257812	1175.44970703125	276.2507934570312	-1094.089965820312	1143.749633789062	181.9387817382812	-1002.95068359375	902.8904418945312	275.0665283203125	-1078.273071289062	898.65185546875	329.8670349121094	-1104.726440429688	1099.626098632812	296.1033325195312	-1009.745910644531	713.9031372070312	270.1367492675781	-985.2398071289062	791.6812133789062	298.4676818847656	-1048.280395507812	795.7291259765625	340.074462890625	-1010.423583984375	1689.74169921875	-70.64248657226562	-890.654541015625	1722.011962890625	109.0601043701172	-855.4467163085938	1726.181030273438	17.04358863830566	-1055.231079101562	1682.17236328125	66.92597961425781	-1040.163208007812	937.40087890625	-147.6932678222656	-983.3568725585938	948.5064697265625	223.7747497558594	-895.9901123046875	981.1298217773438	136.1604766845703	-915.9852905273438	983.96337890625	-97.90383148193359	-1045.407104492188	497.5916137695312	-83.54216003417969	-1048.121215820312	634.5750732421875	-121.3846664428711	-1232.059448242188	42.92835998535156	-60.30009841918945	-1169.34814453125	280.0225830078125	-90.45316314697266	-1021.632446289062	41.66867065429688	29.83711814880371	-1082.078002929688	52.78667831420898	37.00109100341797	-1106.488159179688	40.2541618347168	-67.43452453613281	-1307.512817382812	54.55155181884766	-16.36043930053711	-816.1348266601562	549.957763671875	182.151123046875	-912.9082641601562	798.3265380859375	218.8113098144531	-803.4820556640625	51.5836181640625	138.0076293945312	-804.6134033203125	420.3411560058594	177.8034057617188	-574.647216796875	90.54557800292969	124.3599624633789	-633.4498291015625	84.42906951904297	87.29575347900391	-661.7700805664062	72.68262481689453	179.2814788818359	-851.9212036132812	45.48877716064453	84.6524658203125	
196	1.95	-1106.785278320312	1050.262939453125	126.8227157592773	-1118.50048828125	1042.344482421875	-35.15653610229492	-1116.917846679688	1108.59716796875	32.57354354858398	-884.9022827148438	1294.2431640625	32.21908569335938	-1134.834838867188	1252.938232421875	16.88368225097656	-1072.25537109375	1517.5869140625	-0.126818373799324	-922.2591552734375	1421.162719726562	21.90096473693848	-1138.298461914062	1385.607055664062	78.63416290283203	-1084.576171875	1474.628540039062	-97.70711517333984	-976.6226196289062	1476.391479492188	-164.1827545166016	-1008.079406738281	1349.664428710938	-240.6808319091797	-1017.023742675781	1130.248779296875	-261.0517578125	-1079.065795898438	1123.252197265625	-175.1974182128906	-941.954833984375	877.2013549804688	-191.4134521484375	-1016.052978515625	863.9389038085938	-237.7327880859375	-1008.246154785156	1013.946166992188	-262.4066162109375	-923.7440795898438	692.9588623046875	-164.3280181884766	-985.5491943359375	773.267333984375	-231.9915008544922	-922.448486328125	782.9276733398438	-199.8072052001953	-1014.878845214844	1503.140258789062	182.5740966796875	-1040.284301757812	1436.15771484375	252.5503692626953	-1102.196044921875	1174.283447265625	277.1985168457031	-1088.934204101562	1142.602783203125	182.8827667236328	-998.3567504882812	901.5210571289062	275.8936767578125	-1073.695190429688	897.4021606445312	330.6728515625	-1099.732666015625	1098.454223632812	296.9937438964844	-1005.532470703125	712.5338134765625	270.8739624023438	-980.8939819335938	790.2630004882812	299.2602233886719	-1043.954833984375	794.4017944335938	340.8604125976562	-1003.802856445312	1688.436767578125	-69.61814880371094	-885.0042114257812	1720.599243164062	110.7956390380859	-849.25634765625	1724.80908203125	18.96957778930664	-1049.418579101562	1680.823852539062	67.71304321289062	-1035.358276367188	936.5006713867188	-146.9444427490234	-977.6957397460938	947.0162353515625	224.2940673828125	-890.516357421875	979.777099609375	136.5700836181641	-911.1866455078125	982.8460083007812	-97.47527313232422	-1041.964111328125	496.7759704589844	-83.40411376953125	-1044.395385742188	633.8876342773438	-120.9377288818359	-1232.04833984375	43.0886344909668	-60.11203765869141	-1167.545043945312	279.8872985839844	-90.13798522949219	-1021.545959472656	41.62841415405273	29.82149887084961	-1082.009399414062	52.85507965087891	37.03349304199219	-1106.470458984375	40.21652221679688	-67.45780944824219	-1307.446166992188	55.24001312255859	-16.26903343200684	-810.5133056640625	549.0438842773438	182.4433441162109	-907.4933471679688	796.868408203125	219.7934722900391	-788.5643920898438	51.29189300537109	137.4671325683594	-797.1386108398438	419.9537963867188	177.9170227050781	-560.3484497070312	94.36940002441406	126.1744537353516	-618.6353149414062	87.34185028076172	88.54251861572266	-647.6441650390625	74.81943511962891	180.1856384277344	-836.2703857421875	44.46859359741211	83.74607086181641	
